<svg width="318" height="33" viewBox="0 0 318 33" fill="none" xmlns="http://www.w3.org/2000/svg">
<path d="M0.149148 26H15.978V21.6896H5.37713V1.27273H0.149148V26ZM26.0228 26.3622C31.6493 26.3622 35.1507 22.5107 35.1507 16.7997C35.1507 11.0526 31.6493 7.21307 26.0228 7.21307C20.3964 7.21307 16.895 11.0526 16.895 16.7997C16.895 22.5107 20.3964 26.3622 26.0228 26.3622ZM26.047 22.3778C23.4511 22.3778 22.123 19.9993 22.123 16.7635C22.123 13.5277 23.4511 11.1371 26.047 11.1371C28.5946 11.1371 29.9227 13.5277 29.9227 16.7635C29.9227 19.9993 28.5946 22.3778 26.047 22.3778ZM45.1744 26.3622C50.1126 26.3622 53.2156 23.4645 53.4571 19.2024H48.6034C48.3015 21.1825 46.9975 22.2933 45.2348 22.2933C42.8321 22.2933 41.2745 20.277 41.2745 16.7273C41.2745 13.2259 42.8441 11.2216 45.2348 11.2216C47.1183 11.2216 48.3257 12.4652 48.6034 14.3125H53.4571C53.2397 10.0263 49.9919 7.21307 45.1502 7.21307C39.5238 7.21307 36.0466 11.1129 36.0466 16.7997C36.0466 22.4382 39.4635 26.3622 45.1744 26.3622ZM60.3386 26.3501C63.0793 26.3501 64.8542 25.1548 65.7597 23.4283H65.9046V26H70.7825V13.4915C70.7825 9.07244 67.0396 7.21307 62.9103 7.21307C58.4671 7.21307 55.5452 9.33807 54.8329 12.7188L59.59 13.1051C59.9401 11.8736 61.0389 10.968 62.8862 10.968C64.6369 10.968 65.639 11.8494 65.639 13.3707V13.4432C65.639 14.6385 64.3712 14.7955 61.1475 15.1094C57.4771 15.4474 54.1809 16.679 54.1809 20.8203C54.1809 24.4908 56.8009 26.3501 60.3386 26.3501ZM61.8116 22.8004C60.2299 22.8004 59.095 22.0639 59.095 20.6513C59.095 19.2024 60.2903 18.4901 62.1014 18.2365C63.2242 18.0795 65.0594 17.8139 65.6752 17.4034V19.3714C65.6752 21.3153 64.0694 22.8004 61.8116 22.8004ZM78.2163 1.27273H73.0729V26H78.2163V1.27273ZM97.1294 9.26562H102.442C101.766 4.37571 97.4554 0.934658 91.8652 0.934658C85.3333 0.934658 80.2985 5.64346 80.2985 13.6605C80.2985 21.4844 85.0073 26.3381 91.9739 26.3381C98.2161 26.3381 102.671 22.3899 102.671 15.8821V12.767H92.324V16.7031H97.6365C97.5641 19.7699 95.4753 21.7138 91.998 21.7138C88.074 21.7138 85.5989 18.7798 85.5989 13.6122C85.5989 8.46875 88.1706 5.55895 91.9498 5.55895C94.6422 5.55895 96.4654 6.94744 97.1294 9.26562ZM113.181 26.3622C118.807 26.3622 122.309 22.5107 122.309 16.7997C122.309 11.0526 118.807 7.21307 113.181 7.21307C107.555 7.21307 104.053 11.0526 104.053 16.7997C104.053 22.5107 107.555 26.3622 113.181 26.3622ZM113.205 22.3778C110.609 22.3778 109.281 19.9993 109.281 16.7635C109.281 13.5277 110.609 11.1371 113.205 11.1371C115.753 11.1371 117.081 13.5277 117.081 16.7635C117.081 19.9993 115.753 22.3778 113.205 22.3778ZM140.612 7.45454H135.167L131.327 20.7237H131.134L127.283 7.45454H121.849L128.333 26H134.129L140.612 7.45454ZM150.407 26C157.941 26 162.505 21.3395 162.505 13.6122C162.505 5.90909 157.941 1.27273 150.479 1.27273H141.641V26H150.407ZM146.869 21.5206V5.75213H150.201C154.838 5.75213 157.289 8.11861 157.289 13.6122C157.289 19.13 154.838 21.5206 150.189 21.5206H146.869ZM164.581 26H169.724V15.5078C169.724 13.2259 171.39 11.6562 173.66 11.6562C174.373 11.6562 175.351 11.777 175.834 11.9339V7.37003C175.375 7.26136 174.735 7.18892 174.216 7.18892C172.139 7.18892 170.437 8.39631 169.76 10.6903H169.567V7.45454H164.581V26ZM188.686 18.1037C188.698 20.5909 186.995 21.8949 185.148 21.8949C183.204 21.8949 181.948 20.5305 181.936 18.3452V7.45454H176.793V19.2628C176.805 23.5973 179.34 26.2415 183.071 26.2415C185.86 26.2415 187.865 24.8047 188.698 22.6314H188.891V26H193.829V7.45454H188.686V18.1037ZM196.243 32.9545H201.387V23.0298H201.544C202.256 24.5753 203.813 26.3018 206.808 26.3018C211.034 26.3018 214.33 22.9574 214.33 16.7514C214.33 10.3764 210.889 7.21307 206.82 7.21307C203.717 7.21307 202.232 9.06037 201.544 10.5696H201.314V7.45454H196.243V32.9545ZM201.278 16.7273C201.278 13.419 202.679 11.3061 205.178 11.3061C207.725 11.3061 209.078 13.5156 209.078 16.7273C209.078 19.9631 207.701 22.2088 205.178 22.2088C202.703 22.2088 201.278 20.0355 201.278 16.7273ZM221.347 26.3501C224.088 26.3501 225.863 25.1548 226.768 23.4283H226.913V26H231.791V13.4915C231.791 9.07244 228.048 7.21307 223.919 7.21307C219.476 7.21307 216.554 9.33807 215.841 12.7188L220.599 13.1051C220.949 11.8736 222.047 10.968 223.895 10.968C225.645 10.968 226.648 11.8494 226.648 13.3707V13.4432C226.648 14.6385 225.38 14.7955 222.156 15.1094C218.486 15.4474 215.189 16.679 215.189 20.8203C215.189 24.4908 217.81 26.3501 221.347 26.3501ZM222.82 22.8004C221.239 22.8004 220.104 22.0639 220.104 20.6513C220.104 19.2024 221.299 18.4901 223.11 18.2365C224.233 18.0795 226.068 17.8139 226.684 17.4034V19.3714C226.684 21.3153 225.078 22.8004 222.82 22.8004ZM239.225 1.27273H234.081V26H239.225V1.27273ZM255.373 26.3864C258.946 26.3864 260.154 24.1648 260.782 23.1506H261.12V26H263.873V1.27273H261.023V10.4006H260.782C260.154 9.43466 259.043 7.21307 255.421 7.21307C250.736 7.21307 247.5 10.9318 247.5 16.7756C247.5 22.6676 250.736 26.3864 255.373 26.3864ZM255.759 23.8267C252.185 23.8267 250.35 20.6875 250.35 16.7273C250.35 12.8153 252.137 9.77273 255.759 9.77273C259.236 9.77273 261.071 12.5739 261.071 16.7273C261.071 20.929 259.188 23.8267 255.759 23.8267ZM275.321 26.3864C280.344 26.3864 283.724 22.571 283.724 16.8239C283.724 11.0284 280.344 7.21307 275.321 7.21307C270.298 7.21307 266.918 11.0284 266.918 16.8239C266.918 22.571 270.298 26.3864 275.321 26.3864ZM275.321 23.8267C271.506 23.8267 269.767 20.5426 269.767 16.8239C269.767 13.1051 271.506 9.77273 275.321 9.77273C279.136 9.77273 280.875 13.1051 280.875 16.8239C280.875 20.5426 279.136 23.8267 275.321 23.8267ZM293.908 26.3864C298.013 26.3864 300.718 23.875 301.201 20.5909H298.351C297.82 22.6193 296.13 23.8267 293.908 23.8267C290.527 23.8267 288.354 21.0256 288.354 16.7273C288.354 12.5256 290.576 9.77273 293.908 9.77273C296.419 9.77273 297.917 11.3182 298.351 13.0085H301.201C300.718 9.53125 297.772 7.21307 293.86 7.21307C288.837 7.21307 285.505 11.1733 285.505 16.8239C285.505 22.3778 288.692 26.3864 293.908 26.3864ZM316.803 11.608C315.909 8.97585 313.905 7.21307 310.234 7.21307C306.322 7.21307 303.425 9.43466 303.425 12.5739C303.425 15.1335 304.946 16.848 308.351 17.6449L311.442 18.3693C313.313 18.804 314.195 19.6974 314.195 20.9773C314.195 22.571 312.504 23.875 309.848 23.875C307.518 23.875 306.057 22.8729 305.55 20.8807L302.845 21.5568C303.509 24.7081 306.105 26.3864 309.896 26.3864C314.207 26.3864 317.141 24.032 317.141 20.8324C317.141 18.2486 315.523 16.6186 312.214 15.8097L309.462 15.1335C307.264 14.5902 306.274 13.8537 306.274 12.429C306.274 10.8352 307.964 9.67614 310.234 9.67614C312.722 9.67614 313.748 11.0526 314.243 12.3324L316.803 11.608Z" fill="#02308D"/>
</svg>
